<?xml version="1.0" encoding="iso-8859-1"?>
<!-- Uploaded to: SVG Repo, www.svgrepo.com, Generator: SVG Repo Mixer Tools -->
<svg height="800px" width="800px" version="1.1" id="Capa_1" xmlns="http://www.w3.org/2000/svg" xmlns:xlink="http://www.w3.org/1999/xlink" 
	 viewBox="0 0 304.229 304.229" xml:space="preserve">
<g>
	<path style="fill:#010002;" d="M152.114,0C68.244,0,0.011,68.244,0.011,152.114s68.233,152.114,152.103,152.114
		c83.865,0,152.103-68.244,152.103-152.114S235.979,0,152.114,0z M188.697,179.456h-17.753c1.556-25.602,9.91-46.624,17.753-61.113
		V179.456z M205.646,263.659V90.647c0-3.497-2.148-6.63-5.406-7.892c-3.253-1.273-6.951-0.413-9.317,2.165
		c-1.518,1.659-37.181,41.282-37.181,103.01c0,4.683,3.796,8.469,8.474,8.469h26.483v74.064c-11.569,3.579-23.85,5.526-36.583,5.526
		c-8.534,0-16.872-0.87-24.922-2.518l-0.615-112.616l21.8-17.106c2.045-1.605,3.242-4.068,3.242-6.674V90.642
		c0-4.683-3.796-8.479-8.474-8.479c-4.678,0-8.474,3.791-8.474,8.479v42.31l-8.208,6.44l-0.267-48.805
		c-0.022-4.65-3.813-8.425-8.474-8.425c-0.016,0-0.027,0-0.044,0c-4.678,0.022-8.452,3.845-8.431,8.528l0.272,49.109l-8.746-6.853
		v-42.31c0-4.683-3.796-8.479-8.474-8.479c-4.678,0-8.474,3.791-8.474,8.479v46.433c0,2.605,1.197,5.069,3.247,6.674l22.561,17.699
		l0.582,107.084c-47.722-17.22-81.988-62.838-81.988-116.418c0-68.331,55.571-123.886,123.891-123.886
		s123.886,55.56,123.886,123.891C276.005,201.234,247.189,243.643,205.646,263.659z"/>
</g>
</svg>